ply
format ascii 1.0
element vertex 25
property float x
property float y
property float z
end_header
-7.03855 -0.00148123 -4.97599
-7.37597 -0.00154096 -5.07536
-7.41946 0.000924543 -5.09188
-7.48056 -0.00147332 -5.10284
-7.63511 0.00552775 -5.12592
-7.67721 0.00333969 -5.12523
-7.88737 0.00318603 -5.09583
-8.33276 0.00178965 -5.01238
-8.39078 0.00251061 -4.99766
-8.40842 0.00548003 -4.98827
-5.8192 0.00925353 -0.960594
-1.36888 -0.00480078 -0.996384
-1.18289 -0.00315983 -1.01283
-0.972066 -0.00255117 -1.01043
-0.571693 0.00165764 -0.991793
-0.255758 0.00272255 -0.954273
-0.211747 0.00100386 -0.94545
0.216692 0.00355128 -0.856514
0.343784 0.00582747 -0.817642
0.684112 0.00183502 -0.718905
0.643501 0.00439399 -0.730472
0.99928 0.00110295 -0.60787
1.11587 0.00205462 -0.557323
1.38258 0.00032082 -0.442408
1.6769 -0.00605262 -0.364438
