ply
format ascii 1.0
element vertex 45
property float x
property float y
property float z
end_header
-1.66071 0.0116431 -6.13072
-1.6707 0.0219424 -6.20348
-1.70359 0.0275341 -6.24932
-1.73284 0.0218425 -6.26559
-1.74476 0.0201228 -6.26794
-1.8481 0.0167541 -6.42602
-1.99502 0.0231816 -6.69087
-2.01929 0.0225742 -6.73059
-2.14427 0.0134308 -6.91941
-2.65337 0.00396113 -7.235
-2.68768 0.00334299 -7.27051
-2.8778 0.00143679 -7.46958
-2.96273 -0.000617706 -7.55113
-3.03771 -0.00216989 -7.59762
-3.53149 -0.00239302 -7.77878
-3.78974 0.0015493 -7.83187
-4.30194 0.000343752 -7.97495
-3.352 0.00271025 -7.7739
-3.34097 0.00305298 -7.7783
-4.61815 -0.00306601 -7.94985
-5.44932 -0.00217548 -7.94067
-6.45781 0.00114536 -7.99379
-6.53778 2.63503e-005 -8.00009
-7.66548 -0.00802217 -8.17008
-7.82807 -0.00874809 -8.20799
-7.88557 -0.00721402 -8.21029
-8.4893 -0.00704548 -7.87925
-8.62953 -0.00559338 -7.79
-8.89615 -0.00477778 -7.50277
-8.90746 -0.00737411 -7.47985
-8.66013 -0.00541623 -7.74533
-9.16535 0.00332323 -6.20883
-9.14983 -0.000499258 -6.14704
-7.88737 0.00318603 -5.09583
-8.23358 0.00114631 -5.02893
-7.52684 -0.0197053 -1.63432
-1.66412 0.0264207 -4.27431
-1.58952 0.0264575 -4.1661
-1.50992 0.0283201 -4.05675
-1.48333 0.0300035 -4.02124
-0.762212 0.0469078 -3.36954
-0.437156 0.0524547 -3.17753
-0.327043 0.0572681 -3.11473
-0.315586 0.0577251 -3.1109
0.594209 0.0577537 -3.08996
