ply
format ascii 1.0
element vertex 44
property float x
property float y
property float z
end_header
-8.89615 -0.00477778 -7.50277
-8.90746 -0.00737411 -7.47985
-8.66013 -0.00541623 -7.74533
-9.05814 -0.00160328 -6.68078
-9.14983 -0.000499258 -6.14704
-8.98041 0.00677511 -5.34372
-8.96697 0.00656218 -5.33419
-7.03855 -0.00148123 -4.97599
-7.41946 0.000924543 -5.09188
-7.48056 -0.00147332 -5.10284
-6.03892 -0.0135738 -4.10155
-6.02873 -0.0138688 -4.07342
-8.43634 0.00302067 -4.95119
-8.44344 0.0018885 -4.94541
-8.45664 0.00212642 -4.94318
-6.01201 -0.0118428 -3.92949
-6.01605 -0.0123975 -3.98017
-6.03602 -0.0127764 -3.63699
-6.03979 -0.0127074 -3.55317
-6.0684 -0.00613383 -3.20375
-6.16251 -0.00380336 -2.94939
-6.17554 -0.00462065 -2.93367
-6.33628 -0.0062125 -2.68421
-6.90408 -0.00753066 -1.96347
-6.92863 -0.0081938 -1.93335
-7.45245 -0.0107178 -1.5097
-7.44253 -0.0135544 -1.50628
-7.50649 -0.0128424 -1.59619
-7.51089 -0.0132612 -1.60119
-7.47835 -0.0216881 -1.55849
-7.46685 -0.0181278 -1.5518
-7.37954 -0.00146439 -1.51149
-7.33755 0.00173941 -1.51304
-7.0198 0.000411672 -1.28468
-6.92391 0.00314333 -1.21211
-6.71143 0.00023551 -1.04495
-6.701 9.88103e-005 -1.04517
-6.67828 -0.00601495 -1.04751
-6.64823 0.00203631 -1.08115
-6.60844 0.00289041 -1.07193
-6.18297 -0.00386751 -0.95043
-6.08338 0.000591823 -0.932075
-5.35486 0.0305165 -0.930277
-4.3917 0.0163235 -0.870044
