ply
format ascii 1.0
element vertex 30
property float x
property float y
property float z
end_header
-6.53778 2.63503e-005 -8.00009
-7.66548 -0.00802217 -8.17008
-8.62953 -0.00559338 -7.79
-8.43634 0.00302067 -4.95119
-8.44344 0.0018885 -4.94541
-8.45664 0.00212642 -4.94318
-6.03996 -0.00923566 -3.46814
-6.16251 -0.00380336 -2.94939
-6.17554 -0.00462065 -2.93367
-6.23164 -0.00456981 -2.8481
-6.28958 -0.00320905 -2.75842
-6.33628 -0.0062125 -2.68421
-6.51574 0.000615741 -2.43574
-6.92863 -0.0081938 -1.93335
-7.11195 -0.00981215 -1.86687
-7.11968 -0.00755726 -1.86669
-7.13405 -0.00687145 -1.86432
-7.35745 -0.00321027 -1.77225
-7.41744 -0.00569032 -1.74255
-7.45245 -0.0107178 -1.5097
-7.50649 -0.0128424 -1.59619
-7.50124 -0.0134883 -1.58883
-7.51089 -0.0132612 -1.60119
-7.46685 -0.0181278 -1.5518
-7.49103 -0.00668759 -1.67728
-7.51936 -0.0189112 -1.65176
-7.52684 -0.0197053 -1.63432
1.36739 0.0526723 -3.72562
1.45051 0.0515567 -3.82706
1.21756 0.053255 -3.55043
