ply
format ascii 1.0
element vertex 15
property float x
property float y
property float z
end_header
-5.44932 -0.00217548 -7.94067
-6.53778 2.63503e-005 -8.00009
-8.4893 -0.00704548 -7.87925
-8.62953 -0.00559338 -7.79
-8.89615 -0.00477778 -7.50277
-8.90746 -0.00737411 -7.47985
-9.05814 -0.00160328 -6.68078
-9.16535 0.00332323 -6.20883
-8.98041 0.00677511 -5.34372
-8.96697 0.00656218 -5.33419
-7.13405 -0.00687145 -1.86432
1.91863 0.0769555 -5.35806
2.17995 0.0879242 -5.99808
2.19955 0.0879689 -6.03906
2.22614 0.0848232 -6.12229
