ply
format ascii 1.0
element vertex 41
property float x
property float y
property float z
end_header
-9.16535 0.00332323 -6.20883
-8.98041 0.00677511 -5.34372
-8.96697 0.00656218 -5.33419
-7.48056 -0.00147332 -5.10284
-8.23358 0.00114631 -5.02893
-6.03602 -0.0127764 -3.63699
-6.03979 -0.0127074 -3.55317
-7.45245 -0.0107178 -1.5097
-7.44253 -0.0135544 -1.50628
-6.64823 0.00203631 -1.08115
-6.60844 0.00289041 -1.07193
-6.47152 0.00629454 -1.03793
-6.26637 -0.00156407 -0.975509
-6.08338 0.000591823 -0.932075
-6.00902 0.00487339 -0.933707
-5.98565 0.00599933 -0.935041
-5.8192 0.00925353 -0.960594
-5.74289 0.00957665 -0.960806
-5.66393 0.0121231 -0.962779
-5.62447 0.0125429 -0.957644
-5.5 0.0179453 -0.950904
-5.35486 0.0305165 -0.930277
-5.2256 0.013006 -0.945398
-5.14347 0.0133905 -0.942237
-5.06451 0.0183288 -0.92883
-4.52409 0.0173152 -0.892074
-4.43711 0.0208754 -0.877847
-4.3917 0.0163235 -0.870044
-3.83648 0.0232244 -0.789852
-3.16171 0.00727217 -1.0314
-2.11848 0.004789 -1.16891
-2.13433 0.00791234 -1.17475
-1.82883 0.00712625 -1.08619
-1.36888 -0.00480078 -0.996384
-1.18289 -0.00315983 -1.01283
-0.972066 -0.00255117 -1.01043
0.684112 0.00183502 -0.718905
1.59041 0.00292547 -0.358918
1.65386 0.0029837 -0.356203
1.81048 0.0032108 -0.398096
1.84094 0.00187773 -0.404392
