ply
format ascii 1.0
element vertex 27
property float x
property float y
property float z
end_header
-1.6707 0.0219424 -6.20348
-0.762212 0.0469078 -3.36954
-0.327043 0.0572681 -3.11473
-0.315586 0.0577251 -3.1109
-0.269388 0.0593498 -3.0805
-0.213281 0.0620309 -3.05165
0.37133 0.0596707 -3.0454
0.594209 0.0577537 -3.08996
0.914594 0.0485085 -3.20823
1.36739 0.0526723 -3.72562
1.45051 0.0515567 -3.82706
1.21756 0.053255 -3.55043
1.63929 0.056323 -4.0517
1.65846 0.0537926 -4.08121
1.86409 0.0793443 -5.20821
1.91863 0.0769555 -5.35806
1.93659 0.0759203 -5.40162
2.0028 0.0820084 -5.57463
2.17995 0.0879242 -5.99808
2.19955 0.0879689 -6.03906
2.22614 0.0848232 -6.12229
1.85183 0.0785698 -5.1253
1.84661 0.0776686 -5.00301
1.83975 0.0859366 -4.96971
1.76786 0.0687598 -4.43902
2.52519 0.119809 -7.18026
2.40975 0.110851 -6.71455
