ply
format ascii 1.0
element vertex 41
property float x
property float y
property float z
end_header
-8.62953 -0.00559338 -7.79
-8.89615 -0.00477778 -7.50277
-8.66013 -0.00541623 -7.74533
-8.98041 0.00677511 -5.34372
-6.03892 -0.0135738 -4.10155
-6.01605 -0.0123975 -3.98017
-6.03602 -0.0127764 -3.63699
0.594209 0.0577537 -3.08996
1.45051 0.0515567 -3.82706
1.63929 0.056323 -4.0517
1.65846 0.0537926 -4.08121
1.86409 0.0793443 -5.20821
1.93659 0.0759203 -5.40162
2.17995 0.0879242 -5.99808
2.19955 0.0879689 -6.03906
1.85183 0.0785698 -5.1253
1.84661 0.0776686 -5.00301
1.83975 0.0859366 -4.96971
1.76786 0.0687598 -4.43902
1.75636 0.0737458 -4.39195
2.52519 0.119809 -7.18026
2.56533 0.124873 -7.36345
2.61516 0.126264 -7.64229
2.62892 0.127677 -7.73725
2.66341 0.127706 -7.9132
2.66915 0.126609 -7.95734
2.40975 0.110851 -6.71455
2.74332 0.134534 -8.38735
2.77742 0.136971 -8.67482
2.792 0.141458 -9.06702
2.7715 0.145814 -9.50651
2.88541 0.153096 -10.1814
2.86942 0.155161 -10.1092
2.85363 0.155035 -10.0457
2.89975 0.156891 -10.2359
2.75155 0.155208 -9.74223
2.73799 0.150265 -9.69422
2.88188 0.0446 -10.322
2.87117 -0.0233602 -10.361
2.86447 -0.109903 -10.4
2.74065 0.146952 -9.55455
